<svg width="24" height="24" viewBox="0 0 24 24" fill="none" xmlns="http://www.w3.org/2000/svg">
<path fill-rule="evenodd" clip-rule="evenodd" d="M16.0028 13.1995C15.9778 13.2179 15.9323 13.2398 15.8639 13.2398H8.13647C8.05854 13.2398 8.01034 13.2114 7.98829 13.1921C8.02364 12.9091 8.13531 12.3535 8.38652 11.9609C8.63668 11.5706 9.14283 11.1632 9.50009 10.9332L10.1882 10.4903V4.09728L13.8119 4.09698L13.8122 10.5891L14.4805 11.0344C14.9485 11.3461 15.3378 11.7 15.5488 12.0052C15.8085 12.3816 15.9468 12.9007 16.0028 13.1995ZM12.7505 14.7398H15.8639C16.7783 14.7398 17.5199 14.0513 17.5199 13.2026C17.5199 13.2026 17.402 12.0497 16.7828 11.1524C16.3536 10.5314 15.6839 10.0337 15.3122 9.78604V4.09728C15.3122 3.26838 14.6399 2.59698 13.8119 2.59698H10.1885C9.35957 2.59698 8.68817 3.26838 8.68817 4.09728V9.67198C8.4161 9.84712 7.5975 10.4122 7.12307 11.1524C6.54887 12.0497 6.48047 13.2026 6.48047 13.2026C6.48047 14.0513 7.22207 14.7398 8.13647 14.7398H11.2505V20.653C11.2505 21.0672 11.5863 21.403 12.0005 21.403C12.4147 21.403 12.7505 21.0672 12.7505 20.653V14.7398Z" fill="#9a9a9a" id="id_105"></path>
</svg>