<?xml version="1.0" encoding="UTF-8" standalone="no"?> <svg width="50" height="50" viewBox="0 0 50 50" fill="none" xmlns="http://www.w3.org/2000/svg">
<path fill-rule="evenodd" clip-rule="evenodd" d="M26.5625 6.25C27.4254 6.25 28.125 6.94956 28.125 7.8125V42.1875C28.125 43.0504 27.4254 43.75 26.5625 43.75C25.6996 43.75 25 43.0504 25 42.1875V7.8125C25 6.94956 25.6996 6.25 26.5625 6.25ZM20.3125 12.5C21.1754 12.5 21.875 13.1996 21.875 14.0625V35.9375C21.875 36.8004 21.1754 37.5 20.3125 37.5C19.4496 37.5 18.75 36.8004 18.75 35.9375V14.0625C18.75 13.1996 19.4496 12.5 20.3125 12.5ZM32.8125 12.5C33.6754 12.5 34.375 13.1996 34.375 14.0625V35.9375C34.375 36.8004 33.6754 37.5 32.8125 37.5C31.9496 37.5 31.25 36.8004 31.25 35.9375V14.0625C31.25 13.1996 31.9496 12.5 32.8125 12.5ZM14.0625 17.1875C14.9254 17.1875 15.625 17.8871 15.625 18.75V31.25C15.625 32.1129 14.9254 32.8125 14.0625 32.8125C13.1996 32.8125 12.5 32.1129 12.5 31.25V18.75C12.5 17.8871 13.1996 17.1875 14.0625 17.1875ZM39.0625 17.1875C39.9254 17.1875 40.625 17.8871 40.625 18.75V31.25C40.625 32.1129 39.9254 32.8125 39.0625 32.8125C38.1996 32.8125 37.5 32.1129 37.5 31.25V18.75C37.5 17.8871 38.1996 17.1875 39.0625 17.1875ZM7.8125 20.3125C8.67545 20.3125 9.375 21.0121 9.375 21.875V28.125C9.375 28.9879 8.67545 29.6875 7.8125 29.6875C6.94956 29.6875 6.25 28.9879 6.25 28.125V21.875C6.25 21.0121 6.94956 20.3125 7.8125 20.3125ZM45.3125 20.3125C46.1754 20.3125 46.875 21.0121 46.875 21.875V28.125C46.875 28.9879 46.1754 29.6875 45.3125 29.6875C44.4496 29.6875 43.75 28.9879 43.75 28.125V21.875C43.75 21.0121 44.4496 20.3125 45.3125 20.3125Z" fill="black" stroke="black" stroke-linecap="round"/>
</svg>
